<?xml version="1.0" encoding="utf-8"?>
<!-- Generator: Adobe Illustrator 19.2.1, SVG Export Plug-In . SVG Version: 6.00 Build 0)  -->
<svg version="1.1" id="layer" xmlns="http://www.w3.org/2000/svg" xmlns:xlink="http://www.w3.org/1999/xlink" x="0px" y="0px"
	 viewBox="0 0 652 652" style="enable-background:new 0 0 652 652;" xml:space="preserve">
<style type="text/css">
	.st0{fill:#0082C9;}
</style>
<path id="path1052" class="st0" d="M322.1,70.6C243,70.6,175.8,124,155,196.9c-18.2-38.3-57.2-65.3-102.4-65.3
	c-62.2,0-113.1,50.9-113.1,113.1S-9.5,357.7,52.7,357.7c45.2,0,84.2-27,102.4-65.3c20.7,72.9,87.9,126.3,167.1,126.3
	c78.5,0,145.1-52.8,166.5-124.4c18.2,37.7,57.2,64.1,101.8,64.1c62.2,0,113.1-50.9,113.1-113.1s-50.9-113.1-113.1-113.1
	c-44.6,0-82.9,26.4-101.8,64.1C467.2,123.4,400.6,70.6,322.1,70.6z M322.1,136.6c59.7,0,107.4,47.7,107.4,107.4
	s-47.7,107.4-107.4,107.4S214.7,303.6,214.7,244S262.5,136.6,322.1,136.6z M52.7,197.5c26.4,0,46.5,20.7,46.5,46.5
	c0,26.4-20.7,46.5-46.5,46.5c-26.4,0-46.5-20.7-46.5-46.5C6.2,218.2,26.9,197.5,52.7,197.5z M590.3,197.5
	c26.4,0,46.5,20.7,46.5,46.5c0,26.4-20.7,46.5-46.5,46.5c-26.4,0-46.5-20.7-46.5-46.5C543.2,218.2,564,197.5,590.3,197.5z"/>
<path id="path1174" class="st0" d="M19.4,470.1c-2.5,0-3.1,1.3-3.1,3.8v91.7c0,2.5,1.3,3.1,3.1,3.1h2.5c2.5,0,3.1-1.3,3.1-3.1v-76.6
	l49.6,77.3c0,0.6,0.6,0.6,0.6,0.6l0,0c0,0,0.6,0,0.6,0.6c0,0,0,0,0.6,0l0,0c0.6,0,0.6,0,1.3,0h2.5c2.5,0,3.1-1.3,3.1-3.1v-90.5
	c0-2.5-1.3-3.8-3.1-3.8h-2.5c-2.5,0-3.8,1.3-3.8,3.8v76l-49.6-77.3l-0.6-0.6c-0.6-0.6-1.3-1.3-2.5-1.3L19.4,470.1z M618.6,471.4
	c-2.5,0-1.3,1.3-1.3,3.8v31.4c0,3.1,0,5.7,0,5.7l0,0c0,0-6.3-13.8-22.6-13.8c-18.2,0-31.4,14.4-30.8,35.8
	c0,21.4,11.9,36.4,30.2,36.4c18.2,0,23.9-14.4,23.9-14.4h0.6c0,0-0.6,1.9-0.6,4.4v5.7c0,2.5,1.3,3.1,3.8,3.1h2.5
	c2.5,0,3.1-1.3,3.1-3.8v-90.5c0-2.5-3.8-3.8-5.7-3.8H618.6z M373.6,472c-2.5,0-0.6,1.3-0.6,3.8V553c0,15.1,10.1,17,15.7,17
	c2.5,0,3.8-1.3,3.8-3.8v-2.5c0-2.5-1.3-3.1-3.1-3.1c-3.1-0.6-7.5-1.3-7.5-10.1v-75.4c0-2.5-3.8-3.8-5.7-3.8L373.6,472z M260.6,480.1
	c-2.5,0-3.8,1.3-3.8,3.8v16.3v8.2v35.8c0,16.3,9.4,25.8,24.5,25.8c3.1,0,3.8-0.6,3.8-3.1v-1.9c0-2.5-0.6-3.1-3.8-3.8
	c-5.7-0.6-15.1-2.5-15.1-18.2v-34.5h14.4c2.5,0,3.8-0.6,3.8-3.1V504c0-2.5-1.3-3.8-3.8-3.8h-14.4v-16.3c0-2.5-0.6-3.8-3.1-3.8H260.6
	z M134.9,497.7c-18.8,0-33.9,13.8-34.5,36.4c0,21.4,15.7,36.4,36.4,36.4c11.3,0,19.5-5,23.2-7.5c1.9-1.3,1.9-3.1,1.3-4.4l-1.3-1.3
	c-1.3-1.9-2.5-2.5-4.4-1.3c-3.1,2.5-9.4,6.3-18.2,6.3c-14.4,0-26.4-10.1-27-27.6h50.3c1.9,0,3.8-1.9,3.8-3.8
	C163.8,510.9,153.8,497.7,134.9,497.7z M330.9,497.7c-20.7,0-36.4,15.1-36.4,36.4c0,21.4,15.7,36.4,36.4,36.4
	c12.6,0,21.4-6.3,24.5-8.8c1.9-1.9,1.9-3.1,0.6-5l-1.3-1.3c-1.3-1.9-2.5-2.5-4.4-1.3c-3.1,3.1-9.4,7.5-19.5,7.5
	c-15.1,0-27-11.3-27-27.6c0-17,11.9-28.3,27-28.3c8.2,0,14.4,4.4,17.6,6.3c1.9,1.3,3.8,1.3,5-0.6l1.3-1.9c1.9-1.9,1.3-3.8-0.6-5
	C350.4,502.8,342.9,497.7,330.9,497.7L330.9,497.7z M437.1,497.7c-20.1,0-36.4,15.7-36.4,35.8c0,20.7,16.3,36.4,36.4,36.4
	c20.1,0,36.4-15.7,36.4-36.4C474.1,513.4,457.2,497.7,437.1,497.7z M233.6,499c-0.6,0-1.3,0.6-2.5,1.3l-12.6,15.1l-9.4,11.3
	l-14.4-17l-8.2-9.4c-0.6-0.6-1.3-1.3-2.5-1.3c-0.6,0-1.9,0-2.5,1.3l-1.9,1.9c-1.9,1.3-1.9,3.1,0,4.4l12.6,15.1l10.7,12.6l-15.7,18.2
	l0,0l-7.5,9.4c-1.3,1.9-1.3,3.8,0.6,5l1.9,1.9c1.9,1.3,3.1,1.3,4.4-0.6L199,553l9.4-11.3l14.4,17l0,0l7.5,9.4c1.3,1.9,3.1,1.9,5,0.6
	l1.9-1.9c1.9-1.3,1.9-3.1,0-4.4l-12.6-15.1l-10.7-12.6l15.7-18.2l0,0l7.5-9.4c1.3-1.9,1.3-3.8-0.6-5l-1.9-1.9
	C234.8,499,234.2,498.4,233.6,499L233.6,499z M492.4,499c-2.5,0-3.1,1.3-3.1,3.8v40.8c0,18.2,13.2,27,29.5,27
	c16.3,0,29.5-8.8,29.5-27v-40.8c0.6-2.5-0.6-3.8-3.1-3.8h-2.5c-2.5,0-3.8,1.3-3.8,3.8v38.3c0,10.7-6.9,20.7-20.7,20.7
	c-13.2,0-20.7-10.1-20.7-20.7v-38.3c0-2.5-1.3-3.8-3.8-3.8H492.4z M134.9,505.3c10.1,0,18.8,7.5,19.5,22h-43.3
	C113,513.4,123,505.3,134.9,505.3z M437.1,505.9c15.1,0,27,11.9,27,27.6c0,16.3-11.9,28.3-27,28.3s-27-12.6-27-28.3
	C410.1,518.5,422.6,505.9,437.1,505.9z M595.4,505.9c15.1,0,22,13.8,22,27.6c0,20.1-10.7,28.3-22.6,28.3c-13.2,0-22-11.3-22-28.3
	S582.8,505.9,595.4,505.9z"/>
</svg>
